<?xml version="1.0" encoding="UTF-8" standalone="no"?>
<!-- Created with Inkscape (http://www.inkscape.org/) -->

<svg
   version="1.1"
   id="svg1"
   width="909.33331"
   height="302.85333"
   viewBox="0 0 909.33331 302.85333"
   sodipodi:docname="MSHS_Masterbrand_CMYK_Hrztl_no_Reg.eps"
   xmlns:inkscape="http://www.inkscape.org/namespaces/inkscape"
   xmlns:sodipodi="http://sodipodi.sourceforge.net/DTD/sodipodi-0.dtd"
   xmlns="http://www.w3.org/2000/svg"
   xmlns:svg="http://www.w3.org/2000/svg">
  <defs
     id="defs1" />
  <sodipodi:namedview
     id="namedview1"
     pagecolor="#ffffff"
     bordercolor="#000000"
     borderopacity="0.25"
     inkscape:showpageshadow="2"
     inkscape:pageopacity="0.0"
     inkscape:pagecheckerboard="0"
     inkscape:deskcolor="#d1d1d1">
    <inkscape:page
       x="0"
       y="0"
       inkscape:label="1"
       id="page1"
       width="909.33331"
       height="302.85333"
       margin="0"
       bleed="0" />
  </sodipodi:namedview>
  <g
     id="g1"
     inkscape:groupmode="layer"
     inkscape:label="1">
    <g
       id="group-R5">
      <path
         id="path2"
         d="M 1243.38,17.8594 H 969.453 L 2261.29,1969.99 2406.68,1759.43 1243.38,17.8594"
         style="fill:#00adef;fill-opacity:1;fill-rule:nonzero;stroke:none"
         transform="matrix(0.13333333,0,0,-0.13333333,0,302.85333)" />
      <path
         id="path3"
         d="M 1728.14,17.8594 H 1454.16 L 2501.87,1621.48 2647.23,1410.89 1728.14,17.8594"
         style="fill:#00adef;fill-opacity:1;fill-rule:nonzero;stroke:none"
         transform="matrix(0.13333333,0,0,-0.13333333,0,302.85333)" />
      <path
         id="path4"
         d="m 2085.35,2224.82 v 0 c -9.37,13.57 -25.47,46.56 -61.29,46.56 -36.64,0 -51.91,-33.91 -61.29,-46.56 h 0.08 L 484.727,17.8594 H 758.691 L 2168.87,2103.86 l -83.52,120.96"
         style="fill:#00adef;fill-opacity:1;fill-rule:nonzero;stroke:none"
         transform="matrix(0.13333333,0,0,-0.13333333,0,302.85333)" />
      <path
         id="path5"
         d="m 1382.91,1899.95 h 0.04 c -9.45,13.58 -25.57,46.47 -61.35,46.47 -36.66,0 -51.89,-33.81 -61.31,-46.47 h 0.08 L 0,17.8594 H 273.965 L 1464.86,1776.65 l -81.95,123.3"
         style="fill:#00adef;fill-opacity:1;fill-rule:nonzero;stroke:none"
         transform="matrix(0.13333333,0,0,-0.13333333,0,302.85333)" />
      <path
         id="path6"
         d="m 1382.58,1899.86 h 0.08 c -9.46,13.49 -25.53,46.48 -61.31,46.48 -36.7,0 -51.9,-33.91 -61.31,-46.48 L 1177.25,1775.83 2365.66,17.8594 h 273.95 L 1382.58,1899.86"
         style="fill:#d9058d;fill-opacity:1;fill-rule:nonzero;stroke:none"
         transform="matrix(0.13333333,0,0,-0.13333333,0,302.85333)" />
      <path
         id="path7"
         d="m 2085.08,2224.74 h 0.04 c -9.42,13.57 -25.55,46.56 -61.33,46.56 -36.64,0 -51.88,-33.91 -61.29,-46.56 L 1879.8,2100.77 3334.45,17.8594 H 3608.4 L 2085.08,2224.74"
         style="fill:#d9058d;fill-opacity:1;fill-rule:nonzero;stroke:none"
         transform="matrix(0.13333333,0,0,-0.13333333,0,302.85333)" />
      <path
         id="path8"
         d="m 2406.45,1759.13 -145.32,210.57 -141.01,-213.07 145.5,-208.34 140.83,210.84"
         style="fill:#21236a;fill-opacity:1;fill-rule:nonzero;stroke:none"
         transform="matrix(0.13333333,0,0,-0.13333333,0,302.85333)" />
      <path
         id="path9"
         d="m 2647.07,1410.62 -145.39,210.56 -138.67,-212.28 145.47,-208.32 138.59,210.04"
         style="fill:#21236a;fill-opacity:1;fill-rule:nonzero;stroke:none"
         transform="matrix(0.13333333,0,0,-0.13333333,0,302.85333)" />
      <path
         id="path10"
         d="M 2850.08,17.8594 H 3124.1 L 1794.9,1972.82 1651.35,1759.66 2850.08,17.8594"
         style="fill:#d9058d;fill-opacity:1;fill-rule:nonzero;stroke:none"
         transform="matrix(0.13333333,0,0,-0.13333333,0,302.85333)" />
      <path
         id="path11"
         d="m 2085.08,2224.74 h 0.04 c -9.42,13.57 -25.55,46.56 -61.33,46.56 -4.53,0 -8.75,-0.53 -12.7,-1.46 -27.46,-6.76 -40.11,-33.97 -48.32,-45.02 h 0.08 l -74.84,-111.74 -8.21,-12.31 145.82,-208.82 143.09,211.64 -83.63,121.15"
         style="fill:#21236a;fill-opacity:1;fill-rule:nonzero;stroke:none"
         transform="matrix(0.13333333,0,0,-0.13333333,0,302.85333)" />
      <path
         id="path12"
         d="m 1794.9,1972.82 -143.55,-213.16 143.69,-208.79 142.97,211.47 -143.11,210.48"
         style="fill:#21236a;fill-opacity:1;fill-rule:nonzero;stroke:none"
         transform="matrix(0.13333333,0,0,-0.13333333,0,302.85333)" />
      <path
         id="path13"
         d="m 2034.73,1202.59 140.66,210.61 -143.16,210.6 -140.86,-212.87 143.36,-208.34"
         style="fill:#21236a;fill-opacity:1;fill-rule:nonzero;stroke:none"
         transform="matrix(0.13333333,0,0,-0.13333333,0,302.85333)" />
      <path
         id="path14"
         d="m 2277.3,850.172 138.32,209.688 -143.16,210.52 -138.48,-211.99 143.32,-208.218"
         style="fill:#21236a;fill-opacity:1;fill-rule:nonzero;stroke:none"
         transform="matrix(0.13333333,0,0,-0.13333333,0,302.85333)" />
      <path
         id="path15"
         d="m 1382.66,1899.86 c -9.46,13.49 -25.53,46.48 -61.31,46.48 -4.57,0 -8.79,-0.53 -12.74,-1.46 -27.44,-6.74 -40.09,-33.87 -48.32,-44.93 h 0.08 l -83.12,-124.12 143.41,-212.15 144.2,212.97 -1.09,1.66 -81.19,121.55 h 0.08"
         style="fill:#21236a;fill-opacity:1;fill-rule:nonzero;stroke:none"
         transform="matrix(0.13333333,0,0,-0.13333333,0,302.85333)" />
      <path
         id="path16"
         d="m 1704.82,1417.39 -141.19,211.39 -142.81,-213.24 141.37,-209.12 142.63,210.97"
         style="fill:#21236a;fill-opacity:1;fill-rule:nonzero;stroke:none"
         transform="matrix(0.13333333,0,0,-0.13333333,0,302.85333)" />
      <path
         id="path17"
         d="m 1941.52,1063.04 -140.86,210.88 -140.52,-212.38 141.01,-208.618 140.37,210.118"
         style="fill:#21236a;fill-opacity:1;fill-rule:nonzero;stroke:none"
         transform="matrix(0.13333333,0,0,-0.13333333,0,302.85333)" />
      <path
         id="path18"
         d="m 2181.05,704.371 -140.7,210.699 -138.2,-211.519 140.86,-208.422 138.04,209.242"
         style="fill:#21236a;fill-opacity:1;fill-rule:nonzero;stroke:none"
         transform="matrix(0.13333333,0,0,-0.13333333,0,302.85333)" />
      <path
         id="path19"
         d="m 3778.69,1018.32 c 58.32,0 102.6,11.88 102.6,124.21 v 482.76 l -85.31,4.32 v 36.72 l 261.35,-4.31 167.41,-459.01 h 1.08 l 169.56,459.01 258.13,4.31 v -36.72 l -87.48,-4.32 v -602.64 l 87.48,-4.33 v -36.711 c -43.21,0 -124.2,4.309 -167.41,4.309 -43.2,0 -119.88,-4.309 -163.08,-4.309 v 36.711 l 86.4,4.33 v 555.12 h -2.15 L 4194.5,983.762 h -52.92 l -214.93,594.008 h -2.16 v -435.24 c 0,-112.33 42.12,-124.21 111.24,-124.21 v -36.711 c -53.99,0 -85.32,4.309 -128.51,4.309 -43.21,0 -74.52,-4.309 -128.53,-4.309 v 36.711"
         style="fill:#231f20;fill-opacity:1;fill-rule:nonzero;stroke:none"
         transform="matrix(0.13333333,0,0,-0.13333333,0,302.85333)" />
      <path
         id="path20"
         d="m 5040.14,1231.09 c 0,146.88 -29.16,226.8 -105.84,226.8 -74.52,0 -104.77,-79.92 -104.77,-226.8 0,-147.97 30.25,-226.8 104.77,-226.8 76.68,0 105.84,78.83 105.84,226.8 z m -368.28,-5.4 c 0,183.6 124.19,268.92 262.44,268.92 140.4,0 263.52,-74.52 263.52,-258.12 0,-184.68 -120.96,-268.931 -263.52,-268.931 -140.4,0 -262.44,73.441 -262.44,258.131"
         style="fill:#231f20;fill-opacity:1;fill-rule:nonzero;stroke:none"
         transform="matrix(0.13333333,0,0,-0.13333333,0,302.85333)" />
      <path
         id="path21"
         d="m 5289.6,1380.13 c 0,59.4 -18.36,59.4 -73.44,59.4 v 36.72 l 216.01,10.8 v -297 c 0,-103.68 2.16,-156.6 69.12,-156.6 52.92,0 119.88,62.64 119.88,168.48 v 178.2 c 0,59.4 -24.84,59.4 -72.36,59.4 v 36.72 l 214.92,10.8 V 1024.8 l 73.45,-2.15 v -36.732 l -207.37,-10.797 -3.24,96.119 h -1.08 c -34.56,-58.32 -95.04,-101.51 -180.36,-101.51 -113.4,0 -155.53,58.32 -155.53,181.44 v 228.96"
         style="fill:#231f20;fill-opacity:1;fill-rule:nonzero;stroke:none"
         transform="matrix(0.13333333,0,0,-0.13333333,0,302.85333)" />
      <path
         id="path22"
         d="m 6147.12,1018.32 v -36.711 c -51.85,0 -79.92,4.309 -142.57,4.309 -62.64,0 -91.8,-4.309 -144.72,-4.309 v 36.711 l 73.44,5.4 v 358.57 c 0,57.24 -18.36,57.24 -73.44,57.24 v 36.72 l 207.37,10.8 2.16,-93.96 h 1.07 c 36.73,59.4 95.05,102.6 180.37,102.6 90.71,0 155.52,-55.08 155.52,-191.16 v -280.81 l 74.52,-5.4 v -36.711 c -52.92,0 -82.08,4.309 -144.73,4.309 -62.63,0 -89.64,-4.309 -142.56,-4.309 v 36.711 l 71.28,5.4 v 249.49 c 0,116.64 -12.95,158.76 -70.19,158.76 -52.92,0 -118.81,-62.64 -118.81,-168.48 v -239.77 l 71.29,-5.4"
         style="fill:#231f20;fill-opacity:1;fill-rule:nonzero;stroke:none"
         transform="matrix(0.13333333,0,0,-0.13333333,0,302.85333)" />
      <path
         id="path23"
         d="m 6678.47,1125.25 c -2.16,-66.97 0,-103.68 44.28,-103.68 39.96,0 62.64,57.23 62.64,57.23 l 34.56,-12.96 c 0,0 -22.67,-99.36 -136.08,-99.36 -132.84,0 -146.88,72.37 -146.88,156.6 v 311.05 h -81 v 42.12 h 81 v 180.36 c 81,0 141.48,20.52 141.48,20.52 v -200.88 h 120.96 v -42.12 h -120.96 v -308.88"
         style="fill:#231f20;fill-opacity:1;fill-rule:nonzero;stroke:none"
         transform="matrix(0.13333333,0,0,-0.13333333,0,302.85333)" />
      <path
         id="path24"
         d="m 3866.17,273.25 c 8.64,-48.609 78.84,-232.2109 220.32,-232.2109 88.57,0 124.21,49.6914 124.21,105.8519 0,199.8 -372.6,88.55 -372.6,361.8 0,160.918 132.84,213.84 231.12,213.84 89.64,0 136.08,-29.16 153.36,-29.16 18.36,0 23.76,23.758 23.76,23.758 h 35.64 c 0,-35.641 -2.16,-61.559 -2.16,-96.117 0,-50.762 2.16,-79.922 2.16,-114.481 h -35.64 c -8.64,47.52 -70.2,179.278 -185.76,179.278 -64.81,0 -109.09,-39.957 -109.09,-96.118 0,-183.601 383.41,-77.761 383.41,-367.211 C 4334.9,63.7188 4215.02,0 4083.25,0 c -114.47,0 -173.88,38.8789 -193.32,38.8789 -22.67,0 -27,-25.918 -27,-25.918 h -35.64 c 0,51.8477 3.25,83.168 3.25,135.0001 0,49.687 -3.25,81.008 -3.25,125.289 h 38.88"
         style="fill:#231f20;fill-opacity:1;fill-rule:nonzero;stroke:none"
         transform="matrix(0.13333333,0,0,-0.13333333,0,302.85333)" />
      <path
         id="path25"
         d="m 4520.65,785.172 c 44.28,0 86.4,-29.16 86.4,-82.082 0,-52.918 -42.12,-82.078 -86.4,-82.078 -45.36,0 -87.48,29.16 -87.48,82.078 0,52.922 42.12,82.082 87.48,82.082 z M 4664.3,58.3203 V 21.6094 c -51.85,0 -82.08,4.3125 -144.73,4.3125 -62.64,0 -91.8,-4.3125 -144.72,-4.3125 v 36.7109 l 73.44,5.3985 V 420.129 c 0,59.402 -19.44,59.402 -73.44,59.402 v 36.719 l 216,10.801 V 63.7188 l 73.45,-5.3985"
         style="fill:#231f20;fill-opacity:1;fill-rule:nonzero;stroke:none"
         transform="matrix(0.13333333,0,0,-0.13333333,0,302.85333)" />
      <path
         id="path26"
         d="M 4974.25,58.3203 V 21.6094 c -51.85,0 -79.92,4.3125 -142.57,4.3125 -62.64,0 -91.8,-4.3125 -144.72,-4.3125 v 36.7109 l 73.44,5.3985 V 422.289 c 0,57.242 -18.36,57.242 -73.44,57.242 v 36.719 l 207.37,10.801 2.15,-93.961 h 1.08 c 36.73,59.398 95.05,102.601 180.37,102.601 90.71,0 155.52,-55.082 155.52,-191.171 V 63.7188 l 74.52,-5.3985 V 21.6094 c -52.92,0 -82.08,4.3125 -144.73,4.3125 -62.63,0 -89.64,-4.3125 -142.56,-4.3125 v 36.7109 l 71.28,5.3985 V 313.211 c 0,116.641 -12.96,158.758 -70.19,158.758 -52.92,0 -118.81,-62.641 -118.81,-168.481 V 63.7188 l 71.29,-5.3985"
         style="fill:#231f20;fill-opacity:1;fill-rule:nonzero;stroke:none"
         transform="matrix(0.13333333,0,0,-0.13333333,0,302.85333)" />
      <path
         id="path27"
         d="m 5636.28,265.691 c -133.92,2.161 -164.16,-33.48 -164.16,-101.531 0,-63.719 24.84,-96.1209 70.2,-96.1209 42.12,0 89.64,36.7309 91.8,114.4809 z M 5883.6,104.77 c 0,0 -15.11,-98.28172 -126.35,-98.28172 -52.92,0 -97.21,21.58982 -115.57,75.59372 h -2.16 C 5615.76,36.7188 5570.4,2.16016 5491.56,2.16016 c -75.6,0 -165.24,34.55864 -165.24,147.96084 0,140.41 165.24,153.367 312.13,152.289 v 52.918 c 3.23,86.402 -4.33,143.641 -74.52,143.641 -54.01,0 -77.77,-27 -83.17,-37.797 0,0 23.76,-12.961 23.76,-49.684 0,-37.797 -28.08,-64.797 -72.36,-64.797 -42.12,0 -72.37,25.918 -72.37,69.118 0,76.679 98.29,119.882 214.94,119.882 188.99,0 205.19,-106.921 203.03,-208.441 l -5.4,-204.121 c -1.07,-33.4884 9.73,-56.1602 33.49,-56.1602 31.32,0 42.12,46.4292 42.12,46.4292 l 35.63,-8.628"
         style="fill:#231f20;fill-opacity:1;fill-rule:nonzero;stroke:none"
         transform="matrix(0.13333333,0,0,-0.13333333,0,302.85333)" />
      <path
         id="path28"
         d="m 6030.47,785.172 c 44.28,0 86.4,-29.16 86.4,-82.082 0,-52.918 -42.12,-82.078 -86.4,-82.078 -45.36,0 -87.48,29.16 -87.48,82.078 0,52.922 42.12,82.082 87.48,82.082 z M 6174.11,58.3203 V 21.6094 c -51.84,0 -82.08,4.3125 -144.73,4.3125 -62.63,0 -91.79,-4.3125 -144.71,-4.3125 v 36.7109 l 73.44,5.3985 V 420.129 c 0,59.402 -19.45,59.402 -73.44,59.402 v 36.719 l 215.99,10.801 V 63.7188 l 73.45,-5.3985"
         style="fill:#231f20;fill-opacity:1;fill-rule:nonzero;stroke:none"
         transform="matrix(0.13333333,0,0,-0.13333333,0,302.85333)" />
    </g>
  </g>
</svg>
