<?xml version="1.0" encoding="UTF-8" standalone="no"?>
<!-- Created with Inkscape (http://www.inkscape.org/) -->

<svg
   version="1.1"
   id="svg1"
   width="483.25333"
   height="595.25336"
   viewBox="0 0 483.25333 595.25336"
   sodipodi:docname="MSHS_Masterbrand_CMYK_Vrtl_no_reg.eps"
   xmlns:inkscape="http://www.inkscape.org/namespaces/inkscape"
   xmlns:sodipodi="http://sodipodi.sourceforge.net/DTD/sodipodi-0.dtd"
   xmlns="http://www.w3.org/2000/svg"
   xmlns:svg="http://www.w3.org/2000/svg">
  <defs
     id="defs1" />
  <sodipodi:namedview
     id="namedview1"
     pagecolor="#ffffff"
     bordercolor="#000000"
     borderopacity="0.25"
     inkscape:showpageshadow="2"
     inkscape:pageopacity="0.0"
     inkscape:pagecheckerboard="0"
     inkscape:deskcolor="#d1d1d1">
    <inkscape:page
       x="0"
       y="0"
       inkscape:label="1"
       id="page1"
       width="483.25333"
       height="595.25336"
       margin="0"
       bleed="0" />
  </sodipodi:namedview>
  <g
     id="g1"
     inkscape:groupmode="layer"
     inkscape:label="1">
    <g
       id="group-R5">
      <path
         id="path2"
         d="M 1259.38,2210.88 H 985.449 L 2277.3,4163.01 2422.66,3952.45 1259.38,2210.88"
         style="fill:#00adef;fill-opacity:1;fill-rule:nonzero;stroke:none"
         transform="matrix(0.13333333,0,0,-0.13333333,0,595.25333)" />
      <path
         id="path3"
         d="M 1744.14,2210.88 H 1470.16 L 2517.87,3814.5 2663.22,3603.91 1744.14,2210.88"
         style="fill:#00adef;fill-opacity:1;fill-rule:nonzero;stroke:none"
         transform="matrix(0.13333333,0,0,-0.13333333,0,595.25333)" />
      <path
         id="path4"
         d="m 2101.37,4417.84 v 0 c -9.42,13.57 -25.49,46.56 -61.31,46.56 -36.64,0 -51.9,-33.91 -61.31,-46.56 h 0.08 L 500.723,2210.88 h 273.965 l 1410.192,2086 -83.51,120.96"
         style="fill:#00adef;fill-opacity:1;fill-rule:nonzero;stroke:none"
         transform="matrix(0.13333333,0,0,-0.13333333,0,595.25333)" />
      <path
         id="path5"
         d="m 1398.91,4092.97 h 0.04 c -9.46,13.58 -25.57,46.47 -61.35,46.47 -36.66,0 -51.9,-33.81 -61.31,-46.47 h 0.08 L 15.9961,2210.88 H 289.961 l 1190.899,1758.79 -81.95,123.3"
         style="fill:#00adef;fill-opacity:1;fill-rule:nonzero;stroke:none"
         transform="matrix(0.13333333,0,0,-0.13333333,0,595.25333)" />
      <path
         id="path6"
         d="m 1398.57,4092.88 h 0.08 c -9.45,13.5 -25.52,46.48 -61.31,46.48 -36.7,0 -51.89,-33.9 -61.3,-46.48 l -82.8,-124.03 1188.44,-1757.97 h 273.93 l -1257.04,1882"
         style="fill:#d9058d;fill-opacity:1;fill-rule:nonzero;stroke:none"
         transform="matrix(0.13333333,0,0,-0.13333333,0,595.25333)" />
      <path
         id="path7"
         d="m 2101.07,4417.76 h 0.04 c -9.41,13.57 -25.52,46.56 -61.31,46.56 -36.64,0 -51.89,-33.91 -61.3,-46.56 L 1895.78,4293.8 3350.45,2210.88 h 273.94 L 2101.07,4417.76"
         style="fill:#d9058d;fill-opacity:1;fill-rule:nonzero;stroke:none"
         transform="matrix(0.13333333,0,0,-0.13333333,0,595.25333)" />
      <path
         id="path8"
         d="m 2422.46,3952.15 -145.35,210.57 -141,-213.07 145.51,-208.34 140.84,210.84"
         style="fill:#21236a;fill-opacity:1;fill-rule:nonzero;stroke:none"
         transform="matrix(0.13333333,0,0,-0.13333333,0,595.25333)" />
      <path
         id="path9"
         d="m 2663.05,3603.64 -145.37,210.56 -138.7,-212.28 145.47,-208.32 138.6,210.04"
         style="fill:#21236a;fill-opacity:1;fill-rule:nonzero;stroke:none"
         transform="matrix(0.13333333,0,0,-0.13333333,0,595.25333)" />
      <path
         id="path10"
         d="m 2866.07,2210.88 h 274.01 L 1810.9,4165.84 1667.34,3952.68 2866.07,2210.88"
         style="fill:#d9058d;fill-opacity:1;fill-rule:nonzero;stroke:none"
         transform="matrix(0.13333333,0,0,-0.13333333,0,595.25333)" />
      <path
         id="path11"
         d="m 2101.07,4417.76 h 0.04 c -9.41,13.57 -25.52,46.56 -61.31,46.56 -4.55,0 -8.78,-0.53 -12.71,-1.46 -27.44,-6.76 -40.12,-33.97 -48.34,-45.02 h 0.08 l -74.85,-111.74 -8.2,-12.3 145.84,-208.84 143.09,211.65 -83.64,121.15"
         style="fill:#21236a;fill-opacity:1;fill-rule:nonzero;stroke:none"
         transform="matrix(0.13333333,0,0,-0.13333333,0,595.25333)" />
      <path
         id="path12"
         d="m 1810.9,4165.84 -143.56,-213.16 143.7,-208.79 142.96,211.47 -143.1,210.48"
         style="fill:#21236a;fill-opacity:1;fill-rule:nonzero;stroke:none"
         transform="matrix(0.13333333,0,0,-0.13333333,0,595.25333)" />
      <path
         id="path13"
         d="m 2050.72,3395.61 140.67,210.6 -143.19,210.61 -140.86,-212.87 143.38,-208.34"
         style="fill:#21236a;fill-opacity:1;fill-rule:nonzero;stroke:none"
         transform="matrix(0.13333333,0,0,-0.13333333,0,595.25333)" />
      <path
         id="path14"
         d="m 2293.28,3043.19 138.34,209.69 -143.14,210.52 -138.5,-211.99 143.3,-208.22"
         style="fill:#21236a;fill-opacity:1;fill-rule:nonzero;stroke:none"
         transform="matrix(0.13333333,0,0,-0.13333333,0,595.25333)" />
      <path
         id="path15"
         d="m 1398.65,4092.88 c -9.45,13.5 -25.52,46.48 -61.31,46.48 -4.57,0 -8.79,-0.52 -12.73,-1.47 -27.44,-6.73 -40.1,-33.86 -48.32,-44.92 h 0.08 l -83.13,-124.12 143.42,-212.15 144.2,212.97 -1.09,1.67 -81.2,121.54 h 0.08"
         style="fill:#21236a;fill-opacity:1;fill-rule:nonzero;stroke:none"
         transform="matrix(0.13333333,0,0,-0.13333333,0,595.25333)" />
      <path
         id="path16"
         d="m 1720.82,3610.42 -141.19,211.38 -142.81,-213.24 141.36,-209.12 142.64,210.98"
         style="fill:#21236a;fill-opacity:1;fill-rule:nonzero;stroke:none"
         transform="matrix(0.13333333,0,0,-0.13333333,0,595.25333)" />
      <path
         id="path17"
         d="m 1957.5,3256.06 -140.84,210.88 -140.53,-212.38 141.02,-208.62 140.35,210.12"
         style="fill:#21236a;fill-opacity:1;fill-rule:nonzero;stroke:none"
         transform="matrix(0.13333333,0,0,-0.13333333,0,595.25333)" />
      <path
         id="path18"
         d="m 2197.07,2897.39 -140.72,210.7 -138.21,-211.52 140.88,-208.42 138.05,209.24"
         style="fill:#21236a;fill-opacity:1;fill-rule:nonzero;stroke:none"
         transform="matrix(0.13333333,0,0,-0.13333333,0,595.25333)" />
      <path
         id="path19"
         d="m 0,1018.31 c 58.3203,0 102.578,11.87 102.578,124.16 v 482.63 l -85.2733,4.32 v 36.72 l 261.2893,-4.32 167.344,-458.88 h 1.093 l 169.492,458.88 258.047,4.32 v -36.72 l -87.461,-4.32 v -602.48 l 87.461,-4.31 v -36.72 c -43.164,0 -124.14,4.332 -167.343,4.332 -43.204,0 -119.844,-4.332 -163.047,-4.332 v 36.72 l 86.367,4.31 v 554.98 h -2.149 L 415.703,983.762 h -52.89 L 147.93,1577.6 h -2.149 v -435.13 c 0,-112.29 42.11,-124.16 111.211,-124.16 v -36.72 c -53.984,0 -85.312,4.332 -128.476,4.332 C 85.3125,985.922 53.9844,981.59 0,981.59 v 36.72"
         style="fill:#231f20;fill-opacity:1;fill-rule:nonzero;stroke:none"
         transform="matrix(0.13333333,0,0,-0.13333333,0,595.25333)" />
      <path
         id="path20"
         d="m 1261.37,1231.01 c 0,146.85 -29.14,226.73 -105.82,226.73 -74.5,0 -104.73,-79.88 -104.73,-226.73 0,-147.92 30.23,-226.75 104.73,-226.75 76.68,0 105.82,78.83 105.82,226.75 z m -368.206,-5.39 c 0,183.55 124.176,268.84 262.386,268.84 140.35,0 263.43,-74.49 263.43,-258.04 0,-184.64 -120.89,-268.861 -263.43,-268.861 -140.35,0 -262.386,73.421 -262.386,258.061"
         style="fill:#231f20;fill-opacity:1;fill-rule:nonzero;stroke:none"
         transform="matrix(0.13333333,0,0,-0.13333333,0,595.25333)" />
      <path
         id="path21"
         d="m 1510.94,1380.01 c 0,59.39 -18.36,59.39 -73.4,59.39 v 36.7 l 215.94,10.8 v -296.91 c 0,-103.66 2.15,-156.57 69.1,-156.57 52.89,0 119.84,62.62 119.84,168.44 v 178.15 c 0,59.39 -24.84,59.39 -72.34,59.39 v 36.7 l 214.84,10.8 v -462.11 l 73.44,-2.17 v -36.698 l -207.31,-10.801 -3.24,96.099 h -1.09 c -34.53,-58.3 -95,-101.509 -180.31,-101.509 -113.36,0 -155.47,58.319 -155.47,181.409 v 228.89"
         style="fill:#231f20;fill-opacity:1;fill-rule:nonzero;stroke:none"
         transform="matrix(0.13333333,0,0,-0.13333333,0,595.25333)" />
      <path
         id="path22"
         d="m 2368.4,1018.31 v -36.72 c -51.8,0 -79.88,4.332 -142.5,4.332 -62.62,0 -91.8,-4.332 -144.69,-4.332 v 36.72 l 73.4,5.39 v 358.47 c 0,57.23 -18.32,57.23 -73.4,57.23 v 36.7 l 207.31,10.8 2.14,-93.93 h 1.1 c 36.72,59.38 95,102.56 180.31,102.56 90.7,0 155.47,-55.06 155.47,-191.09 V 1023.7 l 74.49,-5.39 v -36.72 c -52.89,0 -82.03,4.332 -144.69,4.332 -62.61,0 -89.61,-4.332 -142.5,-4.332 v 36.72 l 71.25,5.39 v 249.41 c 0,116.62 -12.96,158.73 -70.15,158.73 -52.93,0 -118.79,-62.64 -118.79,-168.44 v -239.7 l 71.25,-5.39"
         style="fill:#231f20;fill-opacity:1;fill-rule:nonzero;stroke:none"
         transform="matrix(0.13333333,0,0,-0.13333333,0,595.25333)" />
      <path
         id="path23"
         d="m 2899.77,1125.2 c -2.19,-66.95 0,-103.65 44.25,-103.65 39.96,0 62.62,57.22 62.62,57.22 l 34.57,-12.96 c 0,0 -22.69,-99.322 -136.05,-99.322 -132.82,0 -146.84,72.322 -146.84,156.542 v 310.96 h -80.98 v 42.11 h 80.98 v 180.31 c 80.98,0 141.45,20.53 141.45,20.53 V 1476.1 h 120.89 v -42.11 H 2899.77 V 1125.2"
         style="fill:#231f20;fill-opacity:1;fill-rule:nonzero;stroke:none"
         transform="matrix(0.13333333,0,0,-0.13333333,0,595.25333)" />
      <path
         id="path24"
         d="M 87.4609,273.172 C 96.0938,224.582 166.289,41.0195 307.734,41.0195 c 88.516,0 124.18,49.6719 124.18,105.8205 0,199.75 -372.4999,88.539 -372.4999,361.699 0,160.883 132.7739,213.789 231.0549,213.789 89.609,0 136.015,-29.156 153.32,-29.156 18.32,0 23.75,23.769 23.75,23.769 h 35.625 c 0,-35.652 -2.148,-61.543 -2.148,-96.089 0,-50.774 2.148,-79.911 2.148,-114.461 h -35.625 c -8.633,47.5 -70.195,179.218 -185.742,179.218 -64.766,0 -109.024,-39.937 -109.024,-96.089 0,-183.54 383.282,-77.739 383.282,-367.09 C 556.055,63.6992 436.211,0.0117188 304.492,0.0117188 190.039,0.0117188 130.664,38.8711 111.211,38.8711 88.5547,38.8711 84.2188,12.9492 84.2188,12.9492 h -35.625 c 0,51.8399 3.2421,83.1524 3.2421,134.9728 0,49.656 -3.2421,80.969 -3.2421,125.25 h 38.8671"
         style="fill:#231f20;fill-opacity:1;fill-rule:nonzero;stroke:none"
         transform="matrix(0.13333333,0,0,-0.13333333,0,595.25333)" />
      <path
         id="path25"
         d="m 741.914,784.949 c 44.297,0 86.406,-29.14 86.406,-82.051 0,-52.91 -42.109,-82.046 -86.406,-82.046 -45.312,0 -87.422,29.136 -87.422,82.046 0,52.911 42.11,82.051 87.422,82.051 z M 885.547,58.3086 V 21.5898 c -51.836,0 -82.07,4.3321 -144.688,4.3321 -62.617,0 -91.796,-4.3321 -144.687,-4.3321 v 36.7188 l 73.437,5.3906 V 420.012 c 0,59.386 -19.453,59.386 -73.437,59.386 v 36.704 l 215.937,10.796 V 63.6992 l 73.438,-5.3906"
         style="fill:#231f20;fill-opacity:1;fill-rule:nonzero;stroke:none"
         transform="matrix(0.13333333,0,0,-0.13333333,0,595.25333)" />
      <path
         id="path26"
         d="M 1195.47,58.3086 V 21.5898 c -51.8,0 -79.88,4.3321 -142.5,4.3321 -62.618,0 -91.798,-4.3321 -144.689,-4.3321 v 36.7188 l 73.438,5.3906 V 422.172 c 0,57.226 -18.36,57.226 -73.438,57.226 v 36.704 l 207.309,10.796 2.14,-93.929 h 1.1 c 36.72,59.383 95,102.562 180.31,102.562 90.7,0 155.47,-55.062 155.47,-191.09 V 63.6992 l 74.49,-5.3906 V 21.5898 c -52.89,0 -82.03,4.3321 -144.69,4.3321 -62.61,0 -89.61,-4.3321 -142.5,-4.3321 v 36.7188 l 71.25,5.3906 V 313.109 c 0,116.621 -12.96,158.731 -70.15,158.731 -52.93,0 -118.79,-62.641 -118.79,-168.442 V 63.6992 l 71.25,-5.3906"
         style="fill:#231f20;fill-opacity:1;fill-rule:nonzero;stroke:none"
         transform="matrix(0.13333333,0,0,-0.13333333,0,595.25333)" />
      <path
         id="path27"
         d="m 1857.5,265.609 c -133.91,2.172 -164.14,-33.48 -164.14,-101.48 0,-63.707 24.84,-96.0977 70.19,-96.0977 42.11,0 89.61,36.6987 91.76,114.4377 z M 2104.73,104.73 c 0,0 -15.12,-98.23781 -126.33,-98.23781 -52.89,0 -97.15,21.57811 -115.51,75.56641 h -2.19 C 1836.95,36.6992 1791.6,2.14844 1712.81,2.14844 c -75.58,0 -165.19,34.55076 -165.19,147.92956 0,140.363 165.19,153.32 312.03,152.254 v 52.887 c 3.24,86.39 -4.34,143.609 -74.49,143.609 -53.99,0 -77.74,-26.988 -83.17,-37.789 0,0 23.75,-12.949 23.75,-49.668 0,-37.793 -28.04,-64.781 -72.34,-64.781 -42.07,0 -72.31,25.922 -72.31,69.101 0,76.661 98.25,119.84 214.85,119.84 188.94,0 205.15,-106.89 202.97,-208.383 l -5.39,-204.058 c -1.06,-33.4806 9.72,-56.1486 33.47,-56.1486 31.33,0 42.11,46.4176 42.11,46.4176 l 35.63,-8.629"
         style="fill:#231f20;fill-opacity:1;fill-rule:nonzero;stroke:none"
         transform="matrix(0.13333333,0,0,-0.13333333,0,595.25333)" />
      <path
         id="path28"
         d="m 2251.72,784.949 c 44.3,0 86.41,-29.14 86.41,-82.051 0,-52.91 -42.11,-82.046 -86.41,-82.046 -45.31,0 -87.42,29.136 -87.42,82.046 0,52.911 42.11,82.051 87.42,82.051 z M 2395.35,58.3086 V 21.5898 c -51.83,0 -82.07,4.3321 -144.69,4.3321 -62.61,0 -91.79,-4.3321 -144.68,-4.3321 v 36.7188 l 73.4,5.3906 V 420.012 c 0,59.386 -19.42,59.386 -73.4,59.386 v 36.704 l 215.93,10.796 V 63.6992 l 73.44,-5.3906"
         style="fill:#231f20;fill-opacity:1;fill-rule:nonzero;stroke:none"
         transform="matrix(0.13333333,0,0,-0.13333333,0,595.25333)" />
    </g>
  </g>
</svg>
